<?xml version="1.0" encoding="UTF-8"?>
<!DOCTYPE svg PUBLIC "-//W3C//DTD SVG 1.1//EN" "http://www.w3.org/Graphics/SVG/1.1/DTD/svg11.dtd">
<!-- Creator: CorelDRAW 2018 (64-Bit) -->
<svg xmlns="http://www.w3.org/2000/svg" xml:space="preserve" width="230px" height="230px" version="1.1" style="shape-rendering:geometricPrecision; text-rendering:geometricPrecision; image-rendering:optimizeQuality; fill-rule:evenodd; clip-rule:evenodd"
viewBox="0 0 230 230"
 xmlns:xlink="http://www.w3.org/1999/xlink">
 <defs>
  <style type="text/css">
   <![CDATA[
    .str0 {stroke:#FEFEFE;stroke-width:11.339;stroke-linejoin:round;stroke-miterlimit:22.9256}
    .fil2 {fill:none;fill-rule:nonzero}
    .fil5 {fill:#2B2A29}
    .fil3 {fill:#FFED00}
    .fil4 {fill:#E5097F}
    .fil0 {fill:#008DD2}
    .fil1 {fill:#FEFEFE;fill-rule:nonzero}
   ]]>
  </style>
 </defs>
 <g id="Слой_x0020_1">
  <metadata id="CorelCorpID_0Corel-Layer"/>
  <path class="fil0" d="M43.425 0l143.576 0c23.65,0 42.999,19.348 42.999,43.004l0 143.988c0,23.656 -19.349,43.003 -42.999,43.003l-143.991 0c-23.656,0 -43.01,-19.359 -43.01,-43.003l0 -143.565c0,-23.88 19.541,-43.427 43.425,-43.427z"/>
  <path class="fil1" d="M52.084 111.182c-5.824,0 -11.029,-1.311 -15.616,-3.932 -4.586,-2.621 -8.189,-6.224 -10.811,-10.811 -2.62,-4.586 -3.931,-9.792 -3.931,-15.616 0,-5.897 1.311,-11.139 3.931,-15.725 2.622,-4.586 6.225,-8.19 10.811,-10.811 4.587,-2.621 9.792,-3.931 15.616,-3.931 5.825,0 11.012,1.31 15.562,3.931 4.55,2.621 8.135,6.225 10.756,10.811 2.621,4.586 3.968,9.828 4.041,15.725 0,5.824 -1.329,11.03 -3.986,15.616 -2.658,4.587 -6.261,8.19 -10.811,10.811 -4.55,2.621 -9.737,3.932 -15.562,3.932zm0 -7.645c4.223,0 8.008,-0.983 11.357,-2.948 3.349,-1.966 5.97,-4.659 7.863,-8.081 1.893,-3.422 2.839,-7.317 2.839,-11.685 0,-4.368 -0.946,-8.281 -2.839,-11.739 -1.893,-3.458 -4.514,-6.17 -7.863,-8.136 -3.349,-1.965 -7.134,-2.948 -11.357,-2.948 -4.222,0 -8.008,0.983 -11.356,2.948 -3.35,1.966 -5.988,4.678 -7.918,8.136 -1.929,3.458 -2.894,7.371 -2.894,11.739 0,4.368 0.965,8.263 2.894,11.685 1.93,3.422 4.568,6.115 7.918,8.081 3.348,1.965 7.134,2.948 11.356,2.948z"/>
  <path id="1" class="fil1" d="M100.202 136.189c-1.31,0 -2.347,-0.383 -3.112,-1.147 -0.764,-0.764 -1.146,-1.802 -1.146,-3.112l0 -51.544c0.072,-5.678 1.437,-10.793 4.095,-15.342 2.657,-4.551 6.261,-8.136 10.811,-10.757 4.549,-2.621 9.664,-3.931 15.342,-3.931 5.825,0 11.03,1.328 15.616,3.986 4.587,2.657 8.209,6.279 10.866,10.865 2.657,4.587 3.986,9.792 3.986,15.616 0,5.751 -1.292,10.92 -3.877,15.507 -2.584,4.586 -6.097,8.208 -10.538,10.866 -4.441,2.657 -9.464,3.986 -15.07,3.986 -4.877,0 -9.3,-1.038 -13.268,-3.113 -3.967,-2.075 -7.152,-4.823 -9.555,-8.245l0 32.106c0,1.31 -0.382,2.348 -1.146,3.112 -0.765,0.764 -1.766,1.147 -3.004,1.147zm25.99 -32.652c4.223,0 8.009,-0.983 11.357,-2.948 3.35,-1.966 5.988,-4.678 7.917,-8.136 1.93,-3.458 2.894,-7.334 2.894,-11.63 0,-4.368 -0.964,-8.263 -2.894,-11.684 -1.929,-3.422 -4.567,-6.134 -7.917,-8.136 -3.348,-2.002 -7.134,-3.003 -11.357,-3.003 -4.149,0 -7.899,1.001 -11.247,3.003 -3.349,2.002 -5.97,4.714 -7.863,8.136 -1.893,3.421 -2.839,7.316 -2.839,11.684 0,4.296 0.946,8.172 2.839,11.63 1.893,3.458 4.514,6.17 7.863,8.136 3.348,1.965 7.098,2.948 11.247,2.948z"/>
  <path id="2" class="fil1" d="M191.127 111.182c-4.295,0 -8.554,-0.729 -12.776,-2.185 -4.222,-1.456 -7.644,-3.64 -10.265,-6.552 -0.801,-0.873 -1.129,-1.856 -0.983,-2.948 0.146,-1.092 0.692,-2.039 1.638,-2.839 1.019,-0.728 2.075,-1.02 3.167,-0.874 1.092,0.146 2.002,0.619 2.73,1.42 1.747,2.038 4.059,3.603 6.934,4.695 2.876,1.092 6.061,1.638 9.555,1.638 5.388,0 9.283,-0.928 11.685,-2.784 2.403,-1.857 3.64,-4.095 3.713,-6.716 0,-2.621 -1.238,-4.787 -3.713,-6.498 -2.475,-1.711 -6.552,-3.039 -12.23,-3.986 -7.353,-1.165 -12.741,-3.203 -16.162,-6.115 -3.422,-2.912 -5.133,-6.37 -5.133,-10.374 0,-3.713 0.983,-6.807 2.948,-9.282 1.966,-2.476 4.587,-4.332 7.863,-5.57 3.276,-1.237 6.88,-1.856 10.811,-1.856 4.878,0 9.082,0.837 12.613,2.511 3.531,1.675 6.388,3.932 8.572,6.771 0.728,0.946 1.02,1.929 0.874,2.949 -0.146,1.018 -0.728,1.856 -1.747,2.511 -0.874,0.51 -1.875,0.674 -3.003,0.491 -1.129,-0.181 -2.093,-0.709 -2.894,-1.583 -1.82,-2.111 -3.931,-3.658 -6.334,-4.641 -2.402,-0.983 -5.169,-1.474 -8.299,-1.474 -4.004,0 -7.208,0.819 -9.61,2.457 -2.403,1.638 -3.604,3.694 -3.604,6.17 0,1.674 0.455,3.13 1.365,4.368 0.91,1.237 2.476,2.329 4.696,3.276 2.221,0.946 5.333,1.747 9.337,2.402 5.46,0.874 9.773,2.166 12.94,3.877 3.167,1.711 5.424,3.713 6.771,6.006 1.347,2.294 2.02,4.787 2.02,7.481 0,3.421 -1.001,6.424 -3.003,9.008 -2.002,2.585 -4.769,4.605 -8.299,6.061 -3.531,1.456 -7.59,2.185 -12.177,2.185z"/>
  <path id="3" class="fil2 str0" d="M52.084 111.182c-5.824,0 -11.029,-1.311 -15.616,-3.932 -4.586,-2.621 -8.189,-6.224 -10.811,-10.811 -2.62,-4.586 -3.931,-9.792 -3.931,-15.616 0,-5.897 1.311,-11.139 3.931,-15.725 2.622,-4.586 6.225,-8.19 10.811,-10.811 4.587,-2.621 9.792,-3.931 15.616,-3.931 5.825,0 11.012,1.31 15.562,3.931 4.55,2.621 8.135,6.225 10.756,10.811 2.621,4.586 3.968,9.828 4.041,15.725 0,5.824 -1.329,11.03 -3.986,15.616 -2.658,4.587 -6.261,8.19 -10.811,10.811 -4.55,2.621 -9.737,3.932 -15.562,3.932zm0 -7.645c4.223,0 8.008,-0.983 11.357,-2.948 3.349,-1.966 5.97,-4.659 7.863,-8.081 1.893,-3.422 2.839,-7.317 2.839,-11.685 0,-4.368 -0.946,-8.281 -2.839,-11.739 -1.893,-3.458 -4.514,-6.17 -7.863,-8.136 -3.349,-1.965 -7.134,-2.948 -11.357,-2.948 -4.222,0 -8.008,0.983 -11.356,2.948 -3.35,1.966 -5.988,4.678 -7.918,8.136 -1.929,3.458 -2.894,7.371 -2.894,11.739 0,4.368 0.965,8.263 2.894,11.685 1.93,3.422 4.568,6.115 7.918,8.081 3.348,1.965 7.134,2.948 11.356,2.948z"/>
  <path id="4" class="fil2 str0" d="M100.202 136.189c-1.31,0 -2.347,-0.383 -3.112,-1.147 -0.764,-0.764 -1.146,-1.802 -1.146,-3.112l0 -51.544c0.072,-5.678 1.437,-10.793 4.095,-15.342 2.657,-4.551 6.261,-8.136 10.811,-10.757 4.549,-2.621 9.664,-3.931 15.342,-3.931 5.825,0 11.03,1.328 15.616,3.986 4.587,2.657 8.209,6.279 10.866,10.865 2.657,4.587 3.986,9.792 3.986,15.616 0,5.751 -1.292,10.92 -3.877,15.507 -2.584,4.586 -6.097,8.208 -10.538,10.866 -4.441,2.657 -9.464,3.986 -15.07,3.986 -4.877,0 -9.3,-1.038 -13.268,-3.113 -3.967,-2.075 -7.152,-4.823 -9.555,-8.245l0 32.106c0,1.31 -0.382,2.348 -1.146,3.112 -0.765,0.764 -1.766,1.147 -3.004,1.147zm25.99 -32.652c4.223,0 8.009,-0.983 11.357,-2.948 3.35,-1.966 5.988,-4.678 7.917,-8.136 1.93,-3.458 2.894,-7.334 2.894,-11.63 0,-4.368 -0.964,-8.263 -2.894,-11.684 -1.929,-3.422 -4.567,-6.134 -7.917,-8.136 -3.348,-2.002 -7.134,-3.003 -11.357,-3.003 -4.149,0 -7.899,1.001 -11.247,3.003 -3.349,2.002 -5.97,4.714 -7.863,8.136 -1.893,3.421 -2.839,7.316 -2.839,11.684 0,4.296 0.946,8.172 2.839,11.63 1.893,3.458 4.514,6.17 7.863,8.136 3.348,1.965 7.098,2.948 11.247,2.948z"/>
  <path id="5" class="fil2 str0" d="M191.127 111.182c-4.295,0 -8.554,-0.729 -12.776,-2.185 -4.222,-1.456 -7.644,-3.64 -10.265,-6.552 -0.801,-0.873 -1.129,-1.856 -0.983,-2.948 0.146,-1.092 0.692,-2.039 1.638,-2.839 1.019,-0.728 2.075,-1.02 3.167,-0.874 1.092,0.146 2.002,0.619 2.73,1.42 1.747,2.038 4.059,3.603 6.934,4.695 2.876,1.092 6.061,1.638 9.555,1.638 5.388,0 9.283,-0.928 11.685,-2.784 2.403,-1.857 3.64,-4.095 3.713,-6.716 0,-2.621 -1.238,-4.787 -3.713,-6.498 -2.475,-1.711 -6.552,-3.039 -12.23,-3.986 -7.353,-1.165 -12.741,-3.203 -16.162,-6.115 -3.422,-2.912 -5.133,-6.37 -5.133,-10.374 0,-3.713 0.983,-6.807 2.948,-9.282 1.966,-2.476 4.587,-4.332 7.863,-5.57 3.276,-1.237 6.88,-1.856 10.811,-1.856 4.878,0 9.082,0.837 12.613,2.511 3.531,1.675 6.388,3.932 8.572,6.771 0.728,0.946 1.02,1.929 0.874,2.949 -0.146,1.018 -0.728,1.856 -1.747,2.511 -0.874,0.51 -1.875,0.674 -3.003,0.491 -1.129,-0.181 -2.093,-0.709 -2.894,-1.583 -1.82,-2.111 -3.931,-3.658 -6.334,-4.641 -2.402,-0.983 -5.169,-1.474 -8.299,-1.474 -4.004,0 -7.208,0.819 -9.61,2.457 -2.403,1.638 -3.604,3.694 -3.604,6.17 0,1.674 0.455,3.13 1.365,4.368 0.91,1.237 2.476,2.329 4.696,3.276 2.221,0.946 5.333,1.747 9.337,2.402 5.46,0.874 9.773,2.166 12.94,3.877 3.167,1.711 5.424,3.713 6.771,6.006 1.347,2.294 2.02,4.787 2.02,7.481 0,3.421 -1.001,6.424 -3.003,9.008 -2.002,2.585 -4.769,4.605 -8.299,6.061 -3.531,1.456 -7.59,2.185 -12.177,2.185z"/>
  <circle class="fil3" cx="115" cy="178.073" r="22.67"/>
  <circle class="fil4" cx="42.057" cy="178.073" r="22.67"/>
  <circle class="fil5" cx="192.035" cy="178.073" r="22.67"/>
 </g>
</svg>
