<?xml version="1.0" encoding="UTF-8"?>
<!DOCTYPE svg PUBLIC "-//W3C//DTD SVG 1.1//EN" "http://www.w3.org/Graphics/SVG/1.1/DTD/svg11.dtd">
<!-- Creator: CorelDRAW 2018 (64-Bit) -->
<svg xmlns="http://www.w3.org/2000/svg" xml:space="preserve" width="400px" height="130px" version="1.1" style="shape-rendering:geometricPrecision; text-rendering:geometricPrecision; image-rendering:optimizeQuality; fill-rule:evenodd; clip-rule:evenodd"
viewBox="0 0 400 130"
 xmlns:xlink="http://www.w3.org/1999/xlink">
 <defs>
  <style type="text/css">
   <![CDATA[
    .fil3 {fill:#FEFEFE}
    .fil6 {fill:#2B2A29}
    .fil5 {fill:#FFED00}
    .fil4 {fill:#E5097F}
    .fil2 {fill:#008DD2}
    .fil1 {fill:#434242;fill-rule:nonzero}
    .fil0 {fill:#2B2A29;fill-rule:nonzero}
   ]]>
  </style>
 </defs>
 <g id="Слой_x0020_1">
  <metadata id="CorelCorpID_0Corel-Layer"/>
  <path class="fil0" d="M24.883 74.107c-4.234,0 -8.017,-0.953 -11.351,-2.858 -3.334,-1.904 -5.953,-4.524 -7.858,-7.858 -1.905,-3.333 -2.857,-7.117 -2.857,-11.35 0,-4.286 0.952,-8.096 2.857,-11.43 1.905,-3.333 4.524,-5.953 7.858,-7.858 3.334,-1.904 7.117,-2.857 11.351,-2.857 4.233,0 8.003,0.953 11.31,2.857 3.307,1.905 5.913,4.525 7.819,7.858 1.904,3.334 2.883,7.144 2.936,11.43 0,4.233 -0.965,8.017 -2.897,11.35 -1.932,3.334 -4.551,5.954 -7.858,7.858 -3.307,1.905 -7.077,2.858 -11.31,2.858zm0 -5.556c3.069,0 5.82,-0.715 8.254,-2.143 2.434,-1.429 4.339,-3.387 5.715,-5.874 1.376,-2.487 2.064,-5.318 2.064,-8.493 0,-3.175 -0.688,-6.019 -2.064,-8.533 -1.376,-2.513 -3.281,-4.484 -5.715,-5.913 -2.434,-1.429 -5.185,-2.143 -8.254,-2.143 -3.07,0 -5.821,0.714 -8.255,2.143 -2.434,1.429 -4.353,3.4 -5.755,5.913 -1.402,2.514 -2.103,5.358 -2.103,8.533 0,3.175 0.701,6.006 2.103,8.493 1.402,2.487 3.321,4.445 5.755,5.874 2.434,1.428 5.185,2.143 8.255,2.143z"/>
  <path id="1" class="fil0" d="M59.856 92.283c-0.952,0 -1.706,-0.277 -2.262,-0.833 -0.555,-0.556 -0.833,-1.31 -0.833,-2.262l0 -37.464c0.053,-4.128 1.045,-7.845 2.976,-11.152 1.932,-3.308 4.551,-5.914 7.858,-7.819 3.308,-1.904 7.025,-2.857 11.152,-2.857 4.233,0 8.017,0.966 11.351,2.897 3.333,1.931 5.966,4.564 7.897,7.898 1.932,3.333 2.897,7.117 2.897,11.35 0,4.18 -0.939,7.938 -2.817,11.271 -1.879,3.334 -4.432,5.966 -7.66,7.898 -3.228,1.931 -6.879,2.897 -10.953,2.897 -3.546,0 -6.76,-0.754 -9.644,-2.262 -2.884,-1.508 -5.199,-3.506 -6.945,-5.993l0 23.336c0,0.952 -0.278,1.706 -0.834,2.262 -0.555,0.556 -1.283,0.833 -2.183,0.833zm18.891 -23.732c3.069,0 5.821,-0.715 8.255,-2.143 2.434,-1.429 4.352,-3.4 5.755,-5.914 1.402,-2.513 2.103,-5.331 2.103,-8.453 0,-3.175 -0.701,-6.006 -2.103,-8.493 -1.403,-2.487 -3.321,-4.458 -5.755,-5.913 -2.434,-1.455 -5.186,-2.183 -8.255,-2.183 -3.016,0 -5.741,0.728 -8.175,2.183 -2.434,1.455 -4.339,3.426 -5.715,5.913 -1.376,2.487 -2.064,5.318 -2.064,8.493 0,3.122 0.688,5.94 2.064,8.453 1.376,2.514 3.281,4.485 5.715,5.914 2.434,1.428 5.159,2.143 8.175,2.143z"/>
  <path id="2" class="fil0" d="M130.469 74.107c-4.286,0 -8.082,-0.939 -11.39,-2.818 -3.307,-1.878 -5.9,-4.485 -7.778,-7.818 -1.879,-3.334 -2.818,-7.144 -2.818,-11.43 0,-4.339 0.886,-8.162 2.659,-11.469 1.773,-3.308 4.22,-5.914 7.342,-7.819 3.122,-1.904 6.72,-2.857 10.795,-2.857 4.021,0 7.527,0.913 10.517,2.738 2.989,1.826 5.304,4.353 6.945,7.581 1.64,3.227 2.461,6.905 2.461,11.032 0,0.847 -0.265,1.522 -0.794,2.024 -0.53,0.503 -1.218,0.754 -2.064,0.754l-33.734 0 0 -5.079 34.369 0 -3.413 2.46c0.053,-3.069 -0.503,-5.821 -1.667,-8.255 -1.164,-2.434 -2.818,-4.339 -4.961,-5.715 -2.143,-1.375 -4.696,-2.063 -7.659,-2.063 -3.017,0 -5.662,0.714 -7.937,2.143 -2.276,1.428 -4.036,3.4 -5.279,5.913 -1.243,2.513 -1.865,5.384 -1.865,8.612 0,3.228 0.701,6.085 2.103,8.572 1.402,2.487 3.321,4.445 5.755,5.874 2.434,1.429 5.238,2.143 8.413,2.143 1.905,0 3.823,-0.331 5.755,-0.992 1.931,-0.662 3.479,-1.495 4.643,-2.5 0.582,-0.477 1.244,-0.728 1.985,-0.754 0.74,-0.027 1.375,0.172 1.904,0.595 0.688,0.635 1.046,1.323 1.072,2.063 0.026,0.741 -0.278,1.376 -0.913,1.906 -1.746,1.481 -3.968,2.712 -6.667,3.69 -2.699,0.979 -5.292,1.469 -7.779,1.469z"/>
  <path id="3" class="fil0" d="M194.653 73.71c-0.9,0 -1.641,-0.291 -2.223,-0.873 -0.582,-0.582 -0.873,-1.297 -0.873,-2.143l0 -20.637c0,-3.281 -0.621,-5.98 -1.865,-8.096 -1.243,-2.117 -2.937,-3.705 -5.08,-4.763 -2.143,-1.058 -4.564,-1.587 -7.262,-1.587 -2.593,0 -4.935,0.502 -7.025,1.508 -2.09,1.005 -3.744,2.381 -4.961,4.127 -1.217,1.747 -1.826,3.731 -1.826,5.953l-4.365 0c0.106,-3.333 1.005,-6.31 2.699,-8.929 1.693,-2.62 3.942,-4.683 6.747,-6.191 2.804,-1.508 5.926,-2.262 9.366,-2.262 3.756,0 7.117,0.78 10.08,2.341 2.963,1.561 5.305,3.85 7.025,6.866 1.719,3.016 2.579,6.694 2.579,11.033l0 20.637c0,0.846 -0.291,1.561 -0.873,2.143 -0.582,0.582 -1.296,0.873 -2.143,0.873zm-34.131 0c-0.952,0 -1.706,-0.278 -2.262,-0.833 -0.555,-0.556 -0.833,-1.284 -0.833,-2.183l0 -37.306c0,-0.952 0.278,-1.706 0.833,-2.262 0.556,-0.555 1.31,-0.833 2.262,-0.833 0.9,0 1.627,0.278 2.183,0.833 0.556,0.556 0.833,1.31 0.833,2.262l0 37.306c0,0.899 -0.277,1.627 -0.833,2.183 -0.556,0.555 -1.283,0.833 -2.183,0.833z"/>
  <path id="4" class="fil1" d="M212.165 92.283c-0.953,0 -1.707,-0.277 -2.262,-0.833 -0.556,-0.556 -0.834,-1.31 -0.834,-2.262l0 -37.464c0.053,-4.128 1.045,-7.845 2.977,-11.152 1.931,-3.308 4.55,-5.914 7.858,-7.819 3.307,-1.904 7.024,-2.857 11.152,-2.857 4.233,0 8.016,0.966 11.35,2.897 3.334,1.931 5.966,4.564 7.898,7.898 1.931,3.333 2.897,7.117 2.897,11.35 0,4.18 -0.94,7.938 -2.818,11.271 -1.878,3.334 -4.432,5.966 -7.66,7.898 -3.227,1.931 -6.879,2.897 -10.953,2.897 -3.545,0 -6.76,-0.754 -9.644,-2.262 -2.884,-1.508 -5.199,-3.506 -6.945,-5.993l0 23.336c0,0.952 -0.278,1.706 -0.834,2.262 -0.555,0.556 -1.283,0.833 -2.182,0.833zm18.891 -23.732c3.069,0 5.821,-0.715 8.255,-2.143 2.434,-1.429 4.352,-3.4 5.754,-5.914 1.402,-2.513 2.104,-5.331 2.104,-8.453 0,-3.175 -0.702,-6.006 -2.104,-8.493 -1.402,-2.487 -3.32,-4.458 -5.754,-5.913 -2.434,-1.455 -5.186,-2.183 -8.255,-2.183 -3.016,0 -5.742,0.728 -8.176,2.183 -2.434,1.455 -4.339,3.426 -5.714,5.913 -1.377,2.487 -2.065,5.318 -2.065,8.493 0,3.122 0.688,5.94 2.065,8.453 1.375,2.514 3.28,4.485 5.714,5.914 2.434,1.428 5.16,2.143 8.176,2.143z"/>
  <path id="5" class="fil1" d="M265.633 46.961c0.159,-3.281 1.019,-6.217 2.58,-8.81 1.561,-2.593 3.598,-4.63 6.112,-6.112 2.513,-1.481 5.304,-2.222 8.373,-2.222 2.434,0 4.313,0.344 5.636,1.032 1.323,0.687 1.825,1.693 1.508,3.016 -0.212,0.793 -0.569,1.322 -1.072,1.587 -0.502,0.265 -1.111,0.37 -1.825,0.317 -0.715,-0.052 -1.522,-0.105 -2.421,-0.158 -2.963,-0.265 -5.596,0.039 -7.898,0.913 -2.301,0.873 -4.127,2.209 -5.476,4.008 -1.35,1.799 -2.025,3.942 -2.025,6.429l-3.492 0zm0.476 26.749c-0.952,0 -1.693,-0.265 -2.222,-0.794 -0.529,-0.529 -0.794,-1.27 -0.794,-2.222l0 -37.385c0,-0.952 0.265,-1.693 0.794,-2.222 0.529,-0.529 1.27,-0.794 2.222,-0.794 0.953,0 1.694,0.265 2.223,0.794 0.529,0.529 0.793,1.27 0.793,2.222l0 37.385c0,0.952 -0.264,1.693 -0.793,2.222 -0.529,0.529 -1.27,0.794 -2.223,0.794z"/>
  <path id="6" class="fil1" d="M301.719 73.71c-0.953,0 -1.707,-0.278 -2.262,-0.833 -0.556,-0.556 -0.834,-1.31 -0.834,-2.262l0 -37.227c0,-0.952 0.278,-1.706 0.834,-2.262 0.555,-0.555 1.309,-0.833 2.262,-0.833 0.899,0 1.627,0.278 2.182,0.833 0.556,0.556 0.834,1.31 0.834,2.262l0 37.227c0,0.952 -0.278,1.706 -0.834,2.262 -0.555,0.555 -1.283,0.833 -2.182,0.833zm-0.08 -51.672c-1.164,0 -2.169,-0.423 -3.016,-1.27 -0.846,-0.846 -1.27,-1.879 -1.27,-3.096 0,-1.322 0.437,-2.368 1.31,-3.135 0.873,-0.767 1.891,-1.151 3.056,-1.151 1.111,0 2.103,0.384 2.976,1.151 0.873,0.767 1.31,1.813 1.31,3.135 0,1.217 -0.423,2.25 -1.27,3.096 -0.847,0.847 -1.879,1.27 -3.096,1.27z"/>
  <path id="7" class="fil1" d="M355.425 73.71c-0.9,0 -1.641,-0.291 -2.223,-0.873 -0.582,-0.582 -0.873,-1.297 -0.873,-2.143l0 -20.637c0,-3.281 -0.622,-5.98 -1.865,-8.096 -1.244,-2.117 -2.937,-3.705 -5.08,-4.763 -2.143,-1.058 -4.564,-1.587 -7.263,-1.587 -2.593,0 -4.934,0.502 -7.024,1.508 -2.09,1.005 -3.744,2.381 -4.961,4.127 -1.217,1.747 -1.826,3.731 -1.826,5.953l-4.365 0c0.106,-3.333 1.005,-6.31 2.699,-8.929 1.693,-2.62 3.942,-4.683 6.746,-6.191 2.805,-1.508 5.927,-2.262 9.366,-2.262 3.757,0 7.118,0.78 10.081,2.341 2.963,1.561 5.304,3.85 7.024,6.866 1.72,3.016 2.58,6.694 2.58,11.033l0 20.637c0,0.846 -0.291,1.561 -0.873,2.143 -0.582,0.582 -1.296,0.873 -2.143,0.873zm-34.131 0c-0.952,0 -1.706,-0.278 -2.262,-0.833 -0.555,-0.556 -0.833,-1.284 -0.833,-2.183l0 -37.306c0,-0.952 0.278,-1.706 0.833,-2.262 0.556,-0.555 1.31,-0.833 2.262,-0.833 0.9,0 1.627,0.278 2.183,0.833 0.556,0.556 0.833,1.31 0.833,2.262l0 37.306c0,0.899 -0.277,1.627 -0.833,2.183 -0.556,0.555 -1.283,0.833 -2.183,0.833z"/>
  <path id="8" class="fil1" d="M386.827 73.71c-2.805,0 -5.305,-0.661 -7.501,-1.984 -2.196,-1.323 -3.929,-3.136 -5.199,-5.438 -1.27,-2.301 -1.905,-4.934 -1.905,-7.897l0 -38.813c0,-0.9 0.278,-1.641 0.834,-2.223 0.555,-0.582 1.283,-0.873 2.182,-0.873 0.9,0 1.641,0.291 2.223,0.873 0.582,0.582 0.873,1.323 0.873,2.223l0 38.813c0,2.699 0.794,4.908 2.381,6.628 1.588,1.719 3.625,2.579 6.112,2.579l2.143 0c0.847,0 1.535,0.291 2.064,0.873 0.529,0.583 0.794,1.323 0.794,2.223 0,0.899 -0.318,1.627 -0.953,2.183 -0.635,0.555 -1.429,0.833 -2.381,0.833l-1.667 0zm-19.764 -36.512c-0.794,0 -1.455,-0.251 -1.984,-0.754 -0.53,-0.503 -0.794,-1.124 -0.794,-1.865 0,-0.794 0.264,-1.442 0.794,-1.945 0.529,-0.502 1.19,-0.754 1.984,-0.754l20.24 0c0.794,0 1.456,0.252 1.985,0.754 0.529,0.503 0.793,1.151 0.793,1.945 0,0.741 -0.264,1.362 -0.793,1.865 -0.529,0.503 -1.191,0.754 -1.985,0.754l-20.24 0z"/>
  <path class="fil0" d="M243.518 107.408c-0.773,0 -1.538,-0.131 -2.298,-0.392 -0.759,-0.262 -1.374,-0.655 -1.845,-1.179 -0.144,-0.156 -0.203,-0.333 -0.177,-0.529 0.027,-0.197 0.125,-0.367 0.295,-0.511 0.183,-0.131 0.373,-0.183 0.569,-0.157 0.196,0.026 0.36,0.111 0.491,0.255 0.314,0.367 0.73,0.648 1.247,0.845 0.517,0.196 1.089,0.294 1.718,0.294 0.968,0 1.668,-0.167 2.1,-0.501 0.432,-0.333 0.654,-0.736 0.668,-1.207 0,-0.471 -0.223,-0.861 -0.668,-1.168 -0.445,-0.307 -1.178,-0.546 -2.199,-0.717 -1.321,-0.209 -2.29,-0.575 -2.905,-1.099 -0.615,-0.523 -0.923,-1.145 -0.923,-1.865 0,-0.668 0.177,-1.224 0.53,-1.669 0.354,-0.445 0.825,-0.778 1.414,-1.001 0.589,-0.223 1.236,-0.334 1.943,-0.334 0.877,0 1.633,0.151 2.268,0.452 0.635,0.301 1.148,0.707 1.541,1.217 0.131,0.17 0.183,0.347 0.157,0.53 -0.026,0.183 -0.131,0.334 -0.314,0.452 -0.158,0.091 -0.338,0.12 -0.54,0.088 -0.203,-0.033 -0.377,-0.128 -0.521,-0.285 -0.327,-0.379 -0.706,-0.657 -1.138,-0.834 -0.432,-0.177 -0.929,-0.265 -1.492,-0.265 -0.72,0 -1.296,0.147 -1.728,0.442 -0.432,0.294 -0.648,0.664 -0.648,1.109 0,0.301 0.082,0.562 0.246,0.785 0.163,0.223 0.445,0.419 0.844,0.589 0.399,0.17 0.959,0.314 1.679,0.432 0.981,0.157 1.757,0.389 2.326,0.697 0.569,0.307 0.975,0.667 1.217,1.08 0.242,0.412 0.363,0.86 0.363,1.344 0,0.615 -0.18,1.155 -0.54,1.62 -0.359,0.464 -0.857,0.828 -1.492,1.09 -0.634,0.261 -1.364,0.392 -2.188,0.392z"/>
  <path id="1" class="fil0" d="M272.474 107.408c-1.06,0 -1.999,-0.232 -2.817,-0.697 -0.818,-0.465 -1.459,-1.109 -1.924,-1.934 -0.465,-0.824 -0.697,-1.766 -0.697,-2.826 0,-1.074 0.219,-2.019 0.658,-2.837 0.438,-0.818 1.044,-1.463 1.816,-1.934 0.772,-0.471 1.662,-0.707 2.67,-0.707 0.994,0 1.861,0.226 2.601,0.678 0.739,0.451 1.312,1.076 1.718,1.874 0.405,0.799 0.608,1.708 0.608,2.729 0,0.209 -0.065,0.377 -0.196,0.501 -0.131,0.124 -0.301,0.186 -0.51,0.186l-8.344 0 0 -1.256 8.5 0 -0.844 0.608c0.013,-0.759 -0.124,-1.439 -0.412,-2.041 -0.288,-0.602 -0.697,-1.073 -1.227,-1.413 -0.53,-0.341 -1.162,-0.511 -1.894,-0.511 -0.746,0 -1.401,0.176 -1.963,0.53 -0.563,0.353 -0.998,0.841 -1.306,1.462 -0.308,0.622 -0.461,1.332 -0.461,2.131 0,0.798 0.173,1.505 0.52,2.12 0.347,0.615 0.821,1.099 1.423,1.452 0.602,0.354 1.296,0.531 2.081,0.531 0.471,0 0.946,-0.082 1.423,-0.246 0.478,-0.163 0.861,-0.37 1.149,-0.618 0.144,-0.118 0.308,-0.18 0.491,-0.187 0.183,-0.006 0.34,0.043 0.471,0.147 0.17,0.158 0.258,0.328 0.265,0.511 0.006,0.183 -0.069,0.34 -0.226,0.471 -0.432,0.367 -0.981,0.671 -1.649,0.913 -0.667,0.242 -1.309,0.363 -1.924,0.363z"/>
  <path id="2" class="fil0" d="M297.544 100.694c0.039,-0.811 0.252,-1.538 0.638,-2.179 0.386,-0.641 0.89,-1.145 1.511,-1.512 0.622,-0.366 1.312,-0.549 2.071,-0.549 0.602,0 1.067,0.085 1.394,0.255 0.327,0.17 0.452,0.419 0.373,0.746 -0.052,0.196 -0.14,0.327 -0.265,0.393 -0.124,0.065 -0.275,0.091 -0.451,0.078 -0.177,-0.013 -0.376,-0.026 -0.599,-0.039 -0.733,-0.066 -1.384,0.01 -1.953,0.226 -0.57,0.216 -1.021,0.546 -1.355,0.991 -0.334,0.445 -0.501,0.975 -0.501,1.59l-0.863 0zm0.118 6.616c-0.236,0 -0.42,-0.065 -0.55,-0.196 -0.131,-0.131 -0.196,-0.314 -0.196,-0.55l0 -9.246c0,-0.236 0.065,-0.419 0.196,-0.55 0.13,-0.131 0.314,-0.196 0.55,-0.196 0.235,0 0.418,0.065 0.549,0.196 0.131,0.131 0.196,0.314 0.196,0.55l0 9.246c0,0.236 -0.065,0.419 -0.196,0.55 -0.131,0.131 -0.314,0.196 -0.549,0.196z"/>
  <path id="3" class="fil0" d="M326.834 107.31c-0.314,0 -0.55,-0.17 -0.707,-0.51l-4.358 -9.247c-0.079,-0.17 -0.085,-0.34 -0.02,-0.51 0.066,-0.171 0.196,-0.301 0.393,-0.393 0.183,-0.092 0.36,-0.105 0.53,-0.039 0.17,0.065 0.301,0.183 0.393,0.353l4.181 9.05 -0.805 0 4.123 -9.05c0.079,-0.183 0.213,-0.304 0.402,-0.363 0.19,-0.059 0.377,-0.049 0.56,0.03 0.183,0.091 0.307,0.225 0.373,0.402 0.065,0.177 0.059,0.343 -0.02,0.5l-4.299 9.267c-0.157,0.34 -0.406,0.51 -0.746,0.51z"/>
  <path id="4" class="fil0" d="M355.751 107.408c-1.06,0 -1.999,-0.232 -2.817,-0.697 -0.818,-0.465 -1.459,-1.109 -1.924,-1.934 -0.464,-0.824 -0.697,-1.766 -0.697,-2.826 0,-1.074 0.219,-2.019 0.658,-2.837 0.439,-0.818 1.044,-1.463 1.816,-1.934 0.772,-0.471 1.662,-0.707 2.67,-0.707 0.994,0 1.861,0.226 2.601,0.678 0.739,0.451 1.312,1.076 1.718,1.874 0.405,0.799 0.608,1.708 0.608,2.729 0,0.209 -0.065,0.377 -0.196,0.501 -0.131,0.124 -0.301,0.186 -0.51,0.186l-8.344 0 0 -1.256 8.501 0 -0.844 0.608c0.012,-0.759 -0.125,-1.439 -0.413,-2.041 -0.288,-0.602 -0.697,-1.073 -1.227,-1.413 -0.53,-0.341 -1.161,-0.511 -1.894,-0.511 -0.746,0 -1.401,0.176 -1.963,0.53 -0.563,0.353 -0.998,0.841 -1.306,1.462 -0.307,0.622 -0.461,1.332 -0.461,2.131 0,0.798 0.173,1.505 0.52,2.12 0.347,0.615 0.821,1.099 1.423,1.452 0.602,0.354 1.296,0.531 2.081,0.531 0.471,0 0.946,-0.082 1.423,-0.246 0.478,-0.163 0.861,-0.37 1.149,-0.618 0.144,-0.118 0.308,-0.18 0.491,-0.187 0.183,-0.006 0.34,0.043 0.471,0.147 0.17,0.158 0.259,0.328 0.265,0.511 0.006,0.183 -0.069,0.34 -0.226,0.471 -0.432,0.367 -0.981,0.671 -1.649,0.913 -0.667,0.242 -1.309,0.363 -1.924,0.363z"/>
  <path id="5" class="fil0" d="M380.821 100.694c0.039,-0.811 0.252,-1.538 0.638,-2.179 0.386,-0.641 0.89,-1.145 1.512,-1.512 0.621,-0.366 1.311,-0.549 2.07,-0.549 0.602,0 1.067,0.085 1.394,0.255 0.328,0.17 0.452,0.419 0.373,0.746 -0.052,0.196 -0.14,0.327 -0.265,0.393 -0.124,0.065 -0.274,0.091 -0.451,0.078 -0.177,-0.013 -0.376,-0.026 -0.599,-0.039 -0.733,-0.066 -1.384,0.01 -1.953,0.226 -0.569,0.216 -1.021,0.546 -1.355,0.991 -0.334,0.445 -0.501,0.975 -0.501,1.59l-0.863 0zm0.118 6.616c-0.236,0 -0.419,-0.065 -0.55,-0.196 -0.131,-0.131 -0.196,-0.314 -0.196,-0.55l0 -9.246c0,-0.236 0.065,-0.419 0.196,-0.55 0.131,-0.131 0.314,-0.196 0.55,-0.196 0.235,0 0.418,0.065 0.549,0.196 0.131,0.131 0.196,0.314 0.196,0.55l0 9.246c0,0.236 -0.065,0.419 -0.196,0.55 -0.131,0.131 -0.314,0.196 -0.549,0.196z"/>
  <rect class="fil2" x="2.738" y="98.911" width="120.06" height="6.366" rx="9.513" ry="9.094"/>
  <rect class="fil3" x="109.946" y="98.769" width="20.844" height="6.56" rx="1.652" ry="9.372"/>
  <rect class="fil4" x="114.456" y="98.911" width="61.855" height="6.366" rx="4.901" ry="9.094"/>
  <rect class="fil3" x="165.889" y="98.769" width="20.844" height="6.56" rx="1.652" ry="9.372"/>
  <rect class="fil5" x="170.316" y="98.911" width="33.829" height="6.366" rx="2.681" ry="9.094"/>
  <rect class="fil3" x="193.723" y="98.819" width="20.844" height="6.56" rx="1.652" ry="9.372"/>
  <rect class="fil6" x="198.245" y="98.911" width="27.93" height="6.366" rx="2.213" ry="9.094"/>
 </g>
</svg>
